<svg xmlns="http://www.w3.org/2000/svg" style="display: none;">
  <!-- Icono Portada/Imagen -->
  <symbol id="icon-cover" viewBox="0 0 24 24" fill="none" stroke="currentColor" stroke-width="2" stroke-linecap="round" stroke-linejoin="round">
    <rect x="3" y="3" width="18" height="18" rx="2" ry="2"/>
    <circle cx="8.5" cy="8.5" r="1.5"/>
    <polyline points="21 15 16 10 5 21"/>
  </symbol>

  <!-- Icono Imagen Limpia -->
  <symbol id="icon-clean" viewBox="0 0 24 24" fill="none" stroke="currentColor" stroke-width="2" stroke-linecap="round" stroke-linejoin="round">
    <path d="M12 3v1m0 16v1m9-9h-1M4 12H3m15.364-6.364l-.707.707M6.343 17.657l-.707.707m0-12.728l.707.707m11.314 11.314l.707.707M12 8a4 4 0 1 0 0 8 4 4 0 0 0 0-8z"/>
  </symbol>

  <!-- Icono Máscara -->
  <symbol id="icon-mask" viewBox="0 0 24 24" fill="none" stroke="currentColor" stroke-width="2" stroke-linecap="round" stroke-linejoin="round">
    <path d="M12 2a10 10 0 0 0-10 10c0 5.523 4.477 10 10 10s10-4.477 10-10A10 10 0 0 0 12 2zm0 16a6 6 0 1 1 0-12 6 6 0 0 1 0 12z"/>
    <path d="M12 6v12"/>
    <path d="M6 12h12"/>
  </symbol>

  <!-- Icono Papelera/Eliminar -->
  <symbol id="icon-trash" viewBox="0 0 24 24" fill="none" stroke="currentColor" stroke-width="2" stroke-linecap="round" stroke-linejoin="round">
    <polyline points="3 6 5 6 21 6"/>
    <path d="M19 6v14a2 2 0 0 1-2 2H7a2 2 0 0 1-2-2V6m3 0V4a2 2 0 0 1 2-2h4a2 2 0 0 1 2 2v2"/>
    <line x1="10" y1="11" x2="10" y2="17"/>
    <line x1="14" y1="11" x2="14" y2="17"/>
  </symbol>

  <!-- Icono Descargar -->
  <symbol id="icon-download" viewBox="0 0 24 24" fill="none" stroke="currentColor" stroke-width="2" stroke-linecap="round" stroke-linejoin="round">
    <path d="M21 15v4a2 2 0 0 1-2 2H5a2 2 0 0 1-2-2v-4"/>
    <polyline points="7 10 12 15 17 10"/>
    <line x1="12" y1="15" x2="12" y2="3"/>
  </symbol>

  <!-- Icono Restablecer Vista -->
  <symbol id="icon-reset" viewBox="0 0 24 24" fill="none" stroke="currentColor" stroke-width="2" stroke-linecap="round" stroke-linejoin="round">
    <path d="M15 3h6v6"/>
    <path d="M9 21H3v-6"/>
    <path d="M21 3l-7 7M3 21l7-7"/>
  </symbol>

  <!-- Icono Pincel -->
  <symbol id="icon-brush" viewBox="0 0 24 24" fill="none" stroke="currentColor" stroke-width="2" stroke-linecap="round" stroke-linejoin="round">
    <path d="M12 22C17.5228 22 22 17.5228 22 12C22 6.47715 17.5228 2 12 2C6.47715 2 2 6.47715 2 12C2 14.7255 3.09032 17.1962 4.85857 19H12V22Z" />
    <path d="M6 12L10 16L18 8" />
  </symbol>

  <!-- Icono Borrador -->
  <symbol id="icon-eraser" viewBox="0 0 24 24" fill="none" stroke="currentColor" stroke-width="2" stroke-linecap="round" stroke-linejoin="round">
    <path d="M20 20H7L3 16c-1-1-1-3 0-4l9-9c1-1 3-1 4 0l4 4c1 1 1 3 0 4l-5 5"/>
    <line x1="22" y1="20" x2="12" y2="20"/>
  </symbol>

  <!-- Icono Información -->
  <symbol id="icon-info" viewBox="0 0 24 24" fill="none" stroke="currentColor" stroke-width="2" stroke-linecap="round" stroke-linejoin="round">
    <circle cx="12" cy="12" r="10"/>
    <line x1="12" y1="16" x2="12" y2="12"/>
    <line x1="12" y1="8" x2="12.01" y2="8"/>
  </symbol>

  <!-- Icono Mano / Mover -->
  <symbol id="icon-pan" viewBox="0 0 24 24" fill="none" stroke="currentColor" stroke-width="2" stroke-linecap="round" stroke-linejoin="round">
    <path d="M18 11V6a2 2 0 0 0-2-2v0a2 2 0 0 0-2 2v5"/>
    <path d="M14 10V4a2 2 0 0 0-2-2v0a2 2 0 0 0-2 2v8"/>
    <path d="M10 10.5V5.5a2 2 0 0 0-2-2v0a2 2 0 0 0-2 2v9.5"/>
    <path d="M6 14v-1.5a1.5 1.5 0 0 0-3 0V18a6 6 0 0 0 6 6h4c3 0 6-3 6-6v-3a2 2 0 0 0-2-2v0a2 2 0 0 0-2 2"/>
  </symbol>
</svg>
