<svg xmlns="http://www.w3.org/2000/svg" style="display: none;">
  <!-- Portada/Imagen -->
  <symbol id="icon-cover" viewBox="0 0 24 24" fill="none" stroke="currentColor" stroke-width="2" stroke-linecap="round" stroke-linejoin="round">
    <rect x="3" y="3" width="18" height="18" rx="2" ry="2"/>
    <circle cx="8.5" cy="8.5" r="1.5"/>
    <path d="m21 15-5-5L5 21"/>
  </symbol>

  <!-- Imagen Limpia -->
  <symbol id="icon-clean" viewBox="0 0 24 24" fill="none" stroke="currentColor" stroke-width="2" stroke-linecap="round" stroke-linejoin="round">
    <path d="M12 3v1m0 16v1m9-9h-1M4 12H3m15.364-6.364-.707.707M6.343 17.657l-.707.707m0-12.728.707.707m11.314 11.314.707.707M12 8a4 4 0 1 0 0 8 4 4 0 0 0 0-8"/>
  </symbol>

  <!-- Máscara -->
  <symbol id="icon-mask" viewBox="0 0 24 24" fill="none" stroke="currentColor" stroke-width="2" stroke-linecap="round" stroke-linejoin="round">
    <path d="M12 2A10 10 0 0 0 2 12c0 5.523 4.477 10 10 10s10-4.477 10-10A10 10 0 0 0 12 2m0 16a6 6 0 1 1 0-12 6 6 0 0 1 0 12m0-12v12m-6-6h12"/>
  </symbol>

  <!-- Papelera/Eliminar -->
  <symbol id="icon-trash" viewBox="0 0 24 24" fill="none" stroke="currentColor" stroke-width="2" stroke-linecap="round" stroke-linejoin="round">
    <path d="M3 6h18m-2 0v14a2 2 0 0 1-2 2H7a2 2 0 0 1-2-2V6m3 0V4a2 2 0 0 1 2-2h4a2 2 0 0 1 2 2v2m-6 5v6m4-6v6"/>
  </symbol>

  <!-- Descargar -->
  <symbol id="icon-download" viewBox="0 0 24 24" fill="none" stroke="currentColor" stroke-width="2" stroke-linecap="round" stroke-linejoin="round">
    <path d="M21 15v4a2 2 0 0 1-2 2H5a2 2 0 0 1-2-2v-4m4-5 5 5 5-5m-5 5V3"/>
  </symbol>

  <!-- Restablecer Vista -->
  <symbol id="icon-reset" viewBox="0 0 24 24" fill="none" stroke="currentColor" stroke-width="2" stroke-linecap="round" stroke-linejoin="round">
    <path d="M15 3h6v6M9 21H3v-6M21 3l-7 7M3 21l7-7"/>
  </symbol>

  <!-- Pincel -->
  <symbol id="icon-brush" viewBox="0 0 24 24" fill="none" stroke="currentColor" stroke-width="2" stroke-linecap="round" stroke-linejoin="round">
    <path d="m12 22 .73-3.27L21 9.82A2.73 2.73 0 0 0 17.18 6l-8.91 8.91L5 22Zm5-15-1.7 1.7"/>
    <path d="M3 22c.96-2.4 2.8-4.8 6-6"/>
  </symbol>

  <!-- Borrador -->
  <symbol id="icon-eraser" viewBox="0 0 24 24" fill="none" stroke="currentColor" stroke-width="2" stroke-linecap="round" stroke-linejoin="round">
    <path d="M20 20H7l-4-4c-1-1-1-3 0-4l9-9c1-1 3-1 4 0l4 4c1 1 1 3 0 4l-5 5m7 4H12"/>
  </symbol>

  <!-- Información -->
  <symbol id="icon-info" viewBox="0 0 24 24" fill="none" stroke="currentColor" stroke-width="2" stroke-linecap="round" stroke-linejoin="round">
    <circle cx="12" cy="12" r="10"/>
    <path d="M12 16v-4m0-4h.01"/>
  </symbol>

  <!-- Mano / Mover -->
  <symbol id="icon-pan" viewBox="0 0 24 24" fill="none" stroke="currentColor" stroke-width="2" stroke-linecap="round" stroke-linejoin="round">
    <path d="M18 11V6a2 2 0 0 0-2-2v0a2 2 0 0 0-2 2v5m0-1V4a2 2 0 0 0-2-2v0a2 2 0 0 0-2 2v8m0-1.5v-5a2 2 0 0 0-2-2v0a2 2 0 0 0-2 2V15"/>
    <path d="M6 14v-1.5a1.5 1.5 0 0 0-3 0V18a6 6 0 0 0 6 6h4c3 0 6-3 6-6v-3a2 2 0 0 0-2-2v0a2 2 0 0 0-2 2"/>
  </symbol>
</svg>
